# xmcd
#
# Track frame offsets: 
#        150
#        18430
#        33452
#        53512
#        66037
#        89612
#        106157
#        124632
#        138905
#        154460
#
# Disc length: 2306 seconds
#
# Revision: 0
# Processed by: cddbd v1.5.2PL0 Copyright (c) Steve Scherf et al.
# Submitted via: ExactAudioCopyFreeDBPlugin 1.0
#
DISCID=7e09000a
DTITLE=Sonia Leigh - 1978 December
DYEAR=2011
DGENRE=Country
TTITLE0=Ain't Dead Yet
TTITLE1=My Name Is Money
TTITLE2=Bar
TTITLE3=Ribbon Of Red
TTITLE4=I Just Might
TTITLE5=Virginia (Ft. Amy Ray)
TTITLE6=A Poem From The Ocean Floor
TTITLE7=If You Won't Tell
TTITLE8=Roaming (Ft. Zac Brown)
TTITLE9=1978 December
EXTD=
EXTT0=
EXTT1=
EXTT2=
EXTT3=
EXTT4=
EXTT5=
EXTT6=
EXTT7=
EXTT8=
EXTT9=
PLAYORDER=
